<svg width="77" height="24" viewBox="0 0 77 24" fill="none" xmlns="http://www.w3.org/2000/svg">
<path fill-rule="evenodd" clip-rule="evenodd" d="M38.5443 8.02039L38.5444 8.14607C38.5454 9.01284 38.5463 9.74866 38.1038 10.53C37.7295 11.1956 37.1333 11.605 36.4742 11.605C35.5699 11.605 35.04 10.9127 35.04 9.89091C35.04 7.87394 36.8385 7.50783 38.5443 7.50783V8.02039ZM40.9192 13.7884C40.7635 13.9282 40.5383 13.9382 40.3628 13.845C39.6975 13.2898 39.4953 12.9877 39.1864 12.5264L39.1863 12.5263C39.1323 12.4456 39.075 12.36 39.0114 12.2673C37.7196 13.592 36.8021 13.9881 35.1294 13.9881C33.1454 13.9881 31.6052 12.7599 31.6052 10.3003C31.6052 8.37985 32.6386 7.07182 34.1159 6.43278C35.1878 5.95838 36.616 5.81154 37.8539 5.68428C38.0924 5.65975 38.3239 5.63596 38.5443 5.61068V5.30448C38.5443 5.24721 38.5448 5.18887 38.5452 5.12976V5.12973C38.5492 4.60828 38.5537 4.02684 38.2562 3.59039C37.9713 3.15438 37.4215 2.97465 36.9346 2.97465C36.037 2.97465 35.2387 3.43728 35.0433 4.39584C35.0035 4.60886 34.8479 4.81854 34.6326 4.82853L32.3504 4.58223C32.1583 4.53896 31.943 4.38253 31.9993 4.08631C32.5227 1.30383 35.0267 0.465088 37.2658 0.465088C38.4118 0.465088 39.909 0.771295 40.8132 1.64332C41.8668 2.63161 41.8594 3.92368 41.8514 5.33853V5.3397C41.8507 5.46352 41.85 5.58828 41.85 5.71386V9.40164C41.85 10.3912 42.2143 10.8846 42.5988 11.4054C42.645 11.4679 42.6915 11.5308 42.7376 11.595C42.8867 11.808 42.9198 12.0643 42.7277 12.2241C42.2474 12.6268 41.3929 13.3757 40.9225 13.795L40.9192 13.7884ZM14.1228 13.8216H16.4778C16.7295 13.8216 16.9316 13.6253 16.9316 13.3823V6.9453L16.9314 6.79212C16.9291 5.40375 16.9261 3.59701 18.5579 3.59701C20.0599 3.59701 20.0342 5.2045 20.0133 6.51338V6.51348V6.51357V6.51367V6.51378C20.011 6.66241 20.0087 6.80717 20.0087 6.9453L20.012 13.3823C20.012 13.6153 20.1975 13.805 20.4359 13.8216H22.7876C23.0394 13.8216 23.2414 13.6253 23.2414 13.3823V6.9453L23.2411 6.77826C23.2394 6.09889 23.2371 5.18343 23.46 4.6188C23.7018 4.00639 24.298 3.62363 24.8677 3.62363C25.55 3.62363 26.0767 3.85329 26.2522 4.66873C26.3429 5.05987 26.3305 5.96423 26.3223 6.5695C26.3202 6.71619 26.3185 6.84531 26.3185 6.9453V13.3823C26.3185 13.6153 26.5073 13.805 26.7424 13.8216H29.0941C29.3459 13.8216 29.5479 13.6253 29.5479 13.3823L29.5512 5.71715C29.5512 5.53015 29.5544 5.33937 29.5576 5.14673C29.5765 3.99872 29.5965 2.78452 28.9583 1.90955C28.2992 0.990927 27.2194 0.581543 26.2324 0.581543C24.8445 0.581543 23.5494 1.29713 22.9797 2.83149C22.3173 1.29713 21.3965 0.581543 19.9225 0.581543C18.4718 0.581543 17.3953 1.29713 16.8223 2.83149H16.7792V1.24388C16.7627 1.02421 16.5805 0.847803 16.3519 0.837825H14.1559C13.9042 0.837825 13.7021 1.03087 13.7021 1.27384V13.4189C13.7187 13.6352 13.8976 13.805 14.1228 13.8216ZM44.7151 2.98129V1.2439C44.7151 0.980967 44.9138 0.804566 45.1523 0.804566H52.893C53.1414 0.804566 53.3402 0.984295 53.3402 1.2439V2.73167C53.3369 2.98129 53.1282 3.30747 52.7572 3.82336L48.7461 9.57803C50.2366 9.54142 51.8099 9.76442 53.1613 10.5299C53.466 10.703 53.5488 10.956 53.572 11.2056V13.0595C53.572 13.3124 53.2938 13.6086 53.0023 13.4555C50.6208 12.2008 47.4576 12.0643 44.8244 13.4689C44.5561 13.6153 44.2746 13.3224 44.2746 13.0695V11.3088C44.2746 11.0259 44.2779 10.5433 44.5594 10.1139L49.2065 3.4173H45.1622C44.9138 3.4173 44.7151 3.2409 44.7151 2.98129ZM44.6401 16.1953C46.0758 16.0242 49.2162 15.6498 49.7761 16.3713C50.3422 17.0997 49.1483 20.0953 48.6145 21.4345V21.4346L48.6135 21.437C48.4512 21.843 48.799 22.0061 49.1634 21.6999C51.5382 19.7063 52.1477 15.5292 51.6641 14.9268C51.1805 14.3277 47.0336 13.8118 44.5063 15.5991C44.1155 15.872 44.1817 16.2515 44.6157 16.1982L44.6401 16.1953ZM31.5888 23.5072C37.107 23.5072 43.5162 21.7599 47.9381 18.4848C48.6701 17.9389 48.0441 17.1268 47.2955 17.4463C42.3404 19.5598 36.9513 20.5783 32.0525 20.5783C24.7888 20.5783 17.7569 18.578 12.0698 15.253C11.5729 14.9601 11.2019 15.4726 11.616 15.8487C16.8858 20.6316 23.8514 23.5072 31.5888 23.5072ZM60.0045 0.581543C63.499 0.581543 65.3902 3.59701 65.3902 7.43124C65.3902 11.1357 63.3002 14.0746 60.0045 14.0746C56.5731 14.0746 54.705 11.0591 54.705 7.30143C54.705 3.52046 56.5962 0.581543 60.0045 0.581543ZM60.0244 3.06115C58.2888 3.06115 58.1795 5.43757 58.1795 6.91868V6.97319C58.1792 8.47919 58.1786 11.5717 60.0045 11.5717C61.8296 11.5717 61.9157 9.01552 61.9157 7.45786C61.9157 6.43274 61.8726 5.20792 61.5646 4.23605C61.2996 3.39065 60.773 3.06115 60.0244 3.06115ZM67.5759 13.8216H69.921C70.1727 13.8216 70.3781 13.6253 70.3814 13.3823V6.84212C70.3814 6.02336 70.4245 5.28447 70.7557 4.54225C71.0173 3.95647 71.544 3.57038 72.117 3.57038C73.618 3.57038 73.6039 5.22613 73.5928 6.52536V6.52753C73.5919 6.63524 73.591 6.74048 73.591 6.84212V13.4389C73.6141 13.6452 73.793 13.805 74.0083 13.8216H76.3699C76.6018 13.8216 76.7972 13.6519 76.8237 13.4389V5.7937C76.8237 4.6188 76.8237 2.9846 76.2076 2.01272C75.5452 0.964301 74.5151 0.581543 73.4585 0.581543C71.8322 0.581543 70.908 1.37369 70.2489 3.03452H70.2059V1.17731C70.1595 0.9876 69.9905 0.847803 69.7852 0.837825H67.6024C67.3639 0.837825 67.1685 1.0109 67.1486 1.23389L67.1519 13.3823C67.1519 13.6153 67.3408 13.805 67.5759 13.8216ZM7.67082 8.14618C7.67077 8.1046 7.67072 8.06271 7.67072 8.02051V7.50795C5.96823 7.50795 4.16968 7.87406 4.16968 9.89103C4.16968 10.9128 4.69633 11.6051 5.60057 11.6051C6.26302 11.6051 6.85591 11.1957 7.2302 10.5301C7.67268 9.74878 7.67183 9.01295 7.67082 8.14618ZM9.48914 13.8451C9.66469 13.9383 9.88993 13.9283 10.0456 13.7885L10.0522 13.7952C10.5226 13.3758 11.3771 12.6269 11.8574 12.2242C12.0495 12.0644 12.0164 11.8082 11.864 11.5951C11.8178 11.5309 11.7714 11.468 11.7252 11.4055C11.3407 10.8847 10.9763 10.3913 10.9763 9.40176V5.71398C10.9763 5.588 10.977 5.46285 10.9777 5.33864C10.9858 3.9238 10.9931 2.63173 9.93961 1.64344C9.03537 0.771417 7.53823 0.46521 6.3922 0.46521C4.15312 0.46521 1.65237 1.30395 1.12572 4.08643C1.07273 4.38265 1.28471 4.53908 1.47682 4.58235L3.76227 4.82865C3.97426 4.81866 4.12993 4.60898 4.16968 4.39596C4.3651 3.43741 5.16667 2.97477 6.06428 2.97477C6.54787 2.97477 7.0977 3.1545 7.38587 3.59051C7.68013 4.02658 7.67565 4.60738 7.67164 5.12847C7.67118 5.18807 7.67072 5.24687 7.67072 5.3046V5.6108C7.45025 5.63608 7.21879 5.65987 6.98026 5.6844C5.74242 5.81166 4.31421 5.9585 3.24225 6.4329C1.7683 7.07194 0.731567 8.37997 0.731567 10.3004C0.731567 12.7601 2.27507 13.9882 4.2558 13.9882C5.9318 13.9882 6.84597 13.5921 8.13775 12.2675C8.2059 12.366 8.26676 12.4565 8.32401 12.5416C8.62848 12.9945 8.83119 13.296 9.48914 13.8451Z" fill="#2D2D2D"/>
</svg>
