<svg width="138" height="70" viewBox="0 0 138 70" fill="none" xmlns="http://www.w3.org/2000/svg">
<g filter="url(#filter0_d_89_443)">
<rect x="18" y="14" width="102" height="34" rx="5.25" fill="#2D2D2D"/>
<path d="M43.756 30.5234C43.7637 29.9237 43.923 29.3358 44.219 28.8142C44.5151 28.2926 44.9382 27.8544 45.4491 27.5403C45.1245 27.0768 44.6964 26.6954 44.1986 26.4263C43.7009 26.1572 43.1472 26.0079 42.5817 25.9902C41.3752 25.8635 40.2056 26.7121 39.5908 26.7121C38.9642 26.7121 38.0176 26.0028 36.9983 26.0237C36.3391 26.045 35.6965 26.2367 35.1333 26.5802C34.5702 26.9237 34.1056 27.4071 33.7848 27.9835C32.3953 30.3892 33.4318 33.9247 34.7628 35.8692C35.4287 36.8214 36.207 37.885 37.2253 37.8473C38.2218 37.806 38.594 37.2119 39.7969 37.2119C40.9886 37.2119 41.3378 37.8473 42.3768 37.8233C43.4461 37.806 44.1199 36.8669 44.7624 35.9057C45.2409 35.2272 45.6091 34.4774 45.8533 33.6839C45.2321 33.4212 44.7019 32.9813 44.329 32.4193C43.956 31.8573 43.7567 31.1979 43.756 30.5234Z" fill="white"/>
<path d="M41.7935 24.7114C42.3765 24.0115 42.6638 23.1119 42.5942 22.2036C41.7035 22.2972 40.8807 22.7229 40.2897 23.3959C40.0008 23.7248 39.7796 24.1073 39.6386 24.5217C39.4976 24.936 39.4396 25.3741 39.4681 25.8109C39.9136 25.8155 40.3544 25.7189 40.7572 25.5285C41.16 25.338 41.5143 25.0587 41.7935 24.7114Z" fill="white"/>
<path d="M56.3527 35.437H52.9521L52.1354 37.8484H50.695L53.9161 28.9268H55.4126L58.6337 37.8484H57.1687L56.3527 35.437ZM53.3043 34.3242H55.9999L54.671 30.4107H54.6338L53.3043 34.3242Z" fill="white"/>
<path d="M65.5901 34.5963C65.5901 36.6176 64.5082 37.9163 62.8756 37.9163C62.462 37.9379 62.0507 37.8427 61.6888 37.6414C61.3268 37.4401 61.0289 37.141 60.829 36.7783H60.7981V40.0001H59.463V31.3437H60.7554V32.4255H60.7799C60.9889 32.0646 61.2919 31.767 61.6566 31.5645C62.0213 31.362 62.4341 31.2622 62.8511 31.2756C64.5019 31.2756 65.5901 32.5806 65.5901 34.5963ZM64.2178 34.5963C64.2178 33.2794 63.5372 32.4136 62.4988 32.4136C61.4787 32.4136 60.7925 33.2976 60.7925 34.5963C60.7925 35.9069 61.4787 36.7846 62.4988 36.7846C63.5372 36.7846 64.2178 35.9252 64.2178 34.5963Z" fill="white"/>
<path d="M72.7494 34.5963C72.7494 36.6176 71.6675 37.9163 70.0349 37.9163C69.6213 37.9379 69.21 37.8427 68.848 37.6414C68.4861 37.4401 68.1881 37.141 67.9883 36.7783H67.9574V40H66.6223V31.3437H67.9146V32.4255H67.9392C68.1482 32.0645 68.4512 31.767 68.8159 31.5645C69.1806 31.362 69.5934 31.2622 70.0103 31.2756C71.6612 31.2756 72.7494 32.5806 72.7494 34.5963ZM71.377 34.5963C71.377 33.2794 70.6965 32.4136 69.6581 32.4136C68.638 32.4136 67.9518 33.2976 67.9518 34.5963C67.9518 35.9069 68.638 36.7846 69.6581 36.7846C70.6965 36.7846 71.377 35.9251 71.377 34.5963H71.377Z" fill="white"/>
<path d="M77.4809 35.3624C77.5798 36.2471 78.4393 36.828 79.6138 36.828C80.7391 36.828 81.5488 36.2471 81.5488 35.4494C81.5488 34.7569 81.0605 34.3423 79.9042 34.0581L78.748 33.7796C77.1097 33.3839 76.3492 32.6177 76.3492 31.3745C76.3492 29.8351 77.6907 28.7778 79.5955 28.7778C81.4807 28.7778 82.7731 29.8351 82.8166 31.3745H81.4688C81.3881 30.4841 80.6521 29.9467 79.5766 29.9467C78.501 29.9467 77.765 30.4905 77.765 31.2819C77.765 31.9126 78.2351 32.2838 79.385 32.5679L80.368 32.8092C82.1984 33.2421 82.959 33.9774 82.959 35.2824C82.959 36.9515 81.6294 37.9969 79.5148 37.9969C77.5363 37.9969 76.2004 36.9761 76.1141 35.3624L77.4809 35.3624Z" fill="white"/>
<path d="M85.8407 29.8044V31.3438H87.0776V32.4011H85.8407V35.987C85.8407 36.5441 86.0884 36.8036 86.6321 36.8036C86.779 36.8011 86.9256 36.7908 87.0713 36.7728V37.8238C86.8269 37.8694 86.5784 37.8901 86.3297 37.8855C85.0128 37.8855 84.4993 37.3909 84.4993 36.1294V32.4011H83.5535V31.3438H84.4992V29.8044H85.8407Z" fill="white"/>
<path d="M87.7939 34.5963C87.7939 32.5497 88.9993 31.2637 90.8789 31.2637C92.7648 31.2637 93.9646 32.5497 93.9646 34.5963C93.9646 36.6485 92.7711 37.9289 90.8789 37.9289C88.9873 37.9289 87.7939 36.6485 87.7939 34.5963ZM92.6041 34.5963C92.6041 33.1924 91.9608 32.3638 90.8789 32.3638C89.797 32.3638 89.1544 33.1987 89.1544 34.5963C89.1544 36.0058 89.797 36.8281 90.8789 36.8281C91.9608 36.8281 92.6041 36.0058 92.6041 34.5963H92.6041Z" fill="white"/>
<path d="M95.0654 31.3436H96.3388V32.4507H96.3697C96.4559 32.105 96.6585 31.7994 96.9434 31.5854C97.2283 31.3714 97.5782 31.2619 97.9343 31.2755C98.0882 31.275 98.2416 31.2917 98.3918 31.3254V32.5742C98.1975 32.5149 97.9949 32.4876 97.7919 32.4935C97.5979 32.4857 97.4045 32.5199 97.225 32.5938C97.0455 32.6677 96.8842 32.7796 96.752 32.9218C96.6198 33.0639 96.52 33.233 96.4593 33.4174C96.3987 33.6018 96.3786 33.7972 96.4006 33.9901V37.8482H95.0654L95.0654 31.3436Z" fill="white"/>
<path d="M104.548 35.9378C104.368 37.1186 103.218 37.9289 101.747 37.9289C99.8546 37.9289 98.6801 36.6611 98.6801 34.6272C98.6801 32.5869 99.8609 31.2637 101.691 31.2637C103.49 31.2637 104.622 32.4999 104.622 34.4721V34.9296H100.028V35.0102C100.007 35.2496 100.037 35.4908 100.116 35.7177C100.195 35.9446 100.321 36.1521 100.487 36.3263C100.652 36.5006 100.853 36.6376 101.076 36.7284C101.298 36.8191 101.538 36.8615 101.778 36.8526C102.093 36.8822 102.41 36.8091 102.68 36.6443C102.951 36.4795 103.161 36.2317 103.28 35.9378L104.548 35.9378ZM100.034 33.9964H103.286C103.298 33.7812 103.265 33.5658 103.19 33.3637C103.115 33.1617 102.999 32.9774 102.849 32.8224C102.699 32.6674 102.519 32.545 102.32 32.4629C102.12 32.3809 101.906 32.3409 101.691 32.3455C101.473 32.3442 101.258 32.386 101.057 32.4685C100.855 32.5509 100.672 32.6724 100.518 32.8258C100.364 32.9793 100.242 33.1618 100.159 33.3627C100.076 33.5636 100.034 33.779 100.034 33.9964V33.9964Z" fill="white"/>
<path d="M53.137 22.2112C53.4169 22.1911 53.6978 22.2334 53.9594 22.335C54.221 22.4366 54.4568 22.595 54.6497 22.7988C54.8427 23.0025 54.988 23.2466 55.0752 23.5133C55.1625 23.7801 55.1894 24.0628 55.1541 24.3412C55.1541 25.7108 54.4139 26.498 53.137 26.498H51.5886V22.2112H53.137ZM52.2544 25.8917H53.0626C53.2626 25.9037 53.4628 25.8709 53.6486 25.7957C53.8343 25.7206 54.001 25.605 54.1364 25.4573C54.2718 25.3096 54.3726 25.1336 54.4314 24.942C54.4902 24.7505 54.5056 24.5482 54.4764 24.35C54.5034 24.1525 54.4865 23.9515 54.4268 23.7614C54.3671 23.5712 54.2661 23.3966 54.131 23.2501C53.9958 23.1036 53.83 22.9888 53.6453 22.9139C53.4606 22.839 53.2616 22.8059 53.0626 22.817H52.2544V25.8917Z" fill="white"/>
<path d="M55.9062 24.8792C55.8859 24.6666 55.9102 24.4521 55.9776 24.2495C56.0451 24.0468 56.1541 23.8605 56.2977 23.7025C56.4414 23.5444 56.6165 23.4181 56.8118 23.3317C57.0071 23.2453 57.2183 23.2007 57.4319 23.2007C57.6454 23.2007 57.8567 23.2453 58.052 23.3317C58.2473 23.4181 58.4224 23.5444 58.566 23.7025C58.7097 23.8605 58.8187 24.0468 58.8861 24.2495C58.9535 24.4521 58.9778 24.6666 58.9575 24.8792C58.9782 25.0921 58.9542 25.3069 58.887 25.5098C58.8197 25.7128 58.7108 25.8995 58.5671 26.0578C58.4234 26.2162 58.2482 26.3427 58.0527 26.4293C57.8572 26.5159 57.6457 26.5607 57.4319 26.5607C57.218 26.5607 57.0066 26.5159 56.8111 26.4293C56.6156 26.3427 56.4404 26.2162 56.2967 26.0578C56.153 25.8995 56.044 25.7128 55.9768 25.5098C55.9095 25.3069 55.8855 25.0921 55.9062 24.8792ZM58.3008 24.8792C58.3008 24.178 57.9858 23.7679 57.4329 23.7679C56.878 23.7679 56.5658 24.178 56.5658 24.8792C56.5658 25.5861 56.878 25.993 57.4329 25.993C57.9858 25.993 58.3008 25.5833 58.3008 24.8792H58.3008Z" fill="white"/>
<path d="M63.0135 26.498H62.3512L61.6825 24.1154H61.632L60.9662 26.498H60.3102L59.4185 23.2629H60.066L60.6456 25.7315H60.6933L61.3584 23.2629H61.9709L62.636 25.7315H62.6865L63.2632 23.2629H63.9017L63.0135 26.498Z" fill="white"/>
<path d="M64.6515 23.2629H65.2661V23.7768H65.3138C65.3947 23.5922 65.5312 23.4375 65.7043 23.3342C65.8773 23.2309 66.0783 23.1841 66.2792 23.2005C66.4366 23.1886 66.5946 23.2123 66.7416 23.2699C66.8886 23.3274 67.0208 23.4173 67.1283 23.5329C67.2359 23.6484 67.316 23.7867 67.3629 23.9374C67.4097 24.0882 67.422 24.2475 67.3989 24.4037V26.498H66.7605V24.564C66.7605 24.0441 66.5346 23.7856 66.0624 23.7856C65.9555 23.7806 65.8488 23.7988 65.7496 23.8389C65.6505 23.879 65.5611 23.9401 65.4877 24.018C65.4144 24.0958 65.3587 24.1887 65.3246 24.2901C65.2904 24.3914 65.2786 24.499 65.2899 24.6054V26.498H64.6515L64.6515 23.2629Z" fill="white"/>
<path d="M68.4164 22H69.0548V26.498H68.4164V22Z" fill="white"/>
<path d="M69.9423 24.8788C69.922 24.6662 69.9464 24.4517 70.0138 24.249C70.0812 24.0464 70.1903 23.86 70.3339 23.702C70.4776 23.5439 70.6527 23.4177 70.848 23.3312C71.0434 23.2448 71.2546 23.2002 71.4682 23.2002C71.6817 23.2002 71.893 23.2448 72.0883 23.3312C72.2836 23.4177 72.4587 23.5439 72.6024 23.702C72.746 23.86 72.8551 24.0464 72.9225 24.249C72.99 24.4517 73.0143 24.6662 72.994 24.8788C73.0147 25.0916 72.9906 25.3064 72.9234 25.5094C72.8561 25.7124 72.7471 25.8991 72.6034 26.0574C72.4597 26.2158 72.2845 26.3423 72.089 26.4289C71.8935 26.5155 71.682 26.5602 71.4682 26.5602C71.2543 26.5602 71.0429 26.5155 70.8474 26.4289C70.6518 26.3423 70.4766 26.2158 70.3329 26.0574C70.1892 25.8991 70.0802 25.7124 70.013 25.5094C69.9457 25.3064 69.9217 25.0916 69.9423 24.8788ZM72.3369 24.8788C72.3369 24.1776 72.0219 23.7675 71.469 23.7675C70.9141 23.7675 70.6019 24.1776 70.6019 24.8788C70.6019 25.5857 70.9141 25.9926 71.469 25.9926C72.0219 25.9926 72.3369 25.5829 72.3369 24.8788H72.3369Z" fill="white"/>
<path d="M73.6661 25.5833C73.6661 25.001 74.0997 24.6653 74.8694 24.6176L75.7457 24.5671V24.2878C75.7457 23.9461 75.5197 23.7532 75.0833 23.7532C74.7269 23.7532 74.48 23.884 74.4091 24.1128H73.791C73.8562 23.5571 74.3789 23.2007 75.1128 23.2007C75.9239 23.2007 76.3813 23.6044 76.3813 24.2878V26.4982H75.7667V26.0436H75.7162C75.6137 26.2067 75.4697 26.3396 75.299 26.4288C75.1282 26.5181 74.9369 26.5604 74.7445 26.5515C74.6087 26.5656 74.4714 26.5512 74.3415 26.509C74.2117 26.4668 74.0921 26.3979 73.9905 26.3067C73.8889 26.2155 73.8075 26.104 73.7517 25.9794C73.6958 25.8548 73.6666 25.7199 73.6661 25.5833ZM75.7457 25.3069V25.0364L74.9557 25.0869C74.5101 25.1168 74.3081 25.2683 74.3081 25.5535C74.3081 25.8447 74.5606 26.0141 74.908 26.0141C75.0097 26.0244 75.1125 26.0141 75.2102 25.9839C75.308 25.9537 75.3986 25.9041 75.4767 25.8381C75.5549 25.7721 75.619 25.6911 75.6652 25.5998C75.7114 25.5086 75.7387 25.4089 75.7457 25.3069Z" fill="white"/>
<path d="M77.2204 24.879C77.2204 23.8568 77.7459 23.2092 78.5633 23.2092C78.7654 23.1999 78.9661 23.2483 79.1418 23.3488C79.3175 23.4493 79.4609 23.5978 79.5553 23.7768H79.6031V22H80.2415V26.498H79.6297V25.9869H79.5792C79.4775 26.1647 79.329 26.3113 79.1499 26.4107C78.9709 26.5102 78.768 26.5588 78.5633 26.5513C77.7403 26.5513 77.2204 25.9037 77.2204 24.879ZM77.8799 24.879C77.8799 25.5652 78.2034 25.9781 78.7443 25.9781C79.2824 25.9781 79.615 25.5593 79.615 24.8819C79.615 24.2076 79.2789 23.7828 78.7443 23.7828C78.2069 23.7828 77.8799 24.1985 77.8799 24.879H77.8799Z" fill="white"/>
<path d="M82.8834 24.8792C82.863 24.6666 82.8874 24.4521 82.9548 24.2495C83.0222 24.0468 83.1312 23.8605 83.2749 23.7025C83.4185 23.5444 83.5936 23.4181 83.7889 23.3317C83.9842 23.2453 84.1954 23.2007 84.409 23.2007C84.6226 23.2007 84.8338 23.2453 85.0291 23.3317C85.2244 23.4181 85.3995 23.5444 85.5432 23.7025C85.6868 23.8605 85.7958 24.0468 85.8632 24.2495C85.9307 24.4521 85.955 24.6666 85.9347 24.8792C85.9554 25.0921 85.9313 25.3069 85.8641 25.5098C85.7969 25.7128 85.6879 25.8995 85.5442 26.0578C85.4005 26.2162 85.2253 26.3427 85.0298 26.4293C84.8343 26.5159 84.6228 26.5607 84.409 26.5607C84.1952 26.5607 83.9837 26.5159 83.7882 26.4293C83.5927 26.3427 83.4175 26.2162 83.2738 26.0578C83.1301 25.8995 83.0212 25.7128 82.9539 25.5098C82.8867 25.3069 82.8627 25.0921 82.8834 24.8792ZM85.2779 24.8792C85.2779 24.178 84.9629 23.7679 84.4101 23.7679C83.8551 23.7679 83.5429 24.178 83.5429 24.8792C83.5429 25.5861 83.8551 25.993 84.4101 25.993C84.9629 25.993 85.2779 25.5833 85.2779 24.8792Z" fill="white"/>
<path d="M86.7911 23.2629H87.4057V23.7768H87.4534C87.5344 23.5922 87.6709 23.4375 87.8439 23.3342C88.017 23.2309 88.2179 23.1841 88.4188 23.2005C88.5762 23.1886 88.7343 23.2123 88.8813 23.2699C89.0283 23.3274 89.1604 23.4173 89.268 23.5329C89.3755 23.6484 89.4557 23.7867 89.5025 23.9374C89.5494 24.0882 89.5617 24.2475 89.5386 24.4037V26.498H88.9001V24.564C88.9001 24.0441 88.6742 23.7856 88.202 23.7856C88.0952 23.7806 87.9885 23.7988 87.8893 23.8389C87.7901 23.879 87.7008 23.9401 87.6274 24.018C87.554 24.0958 87.4984 24.1887 87.4642 24.2901C87.4301 24.3914 87.4182 24.499 87.4296 24.6054V26.498H86.7911V23.2629Z" fill="white"/>
<path d="M93.1461 22.4573V23.2774H93.847V23.8152H93.1461V25.4787C93.1461 25.8176 93.2857 25.966 93.6035 25.966C93.6849 25.9657 93.7662 25.9608 93.847 25.9513V26.4831C93.7323 26.5036 93.6162 26.5145 93.4997 26.5157C92.7897 26.5157 92.5069 26.2659 92.5069 25.6422V23.8152H91.9933V23.2774H92.5069V22.4573H93.1461Z" fill="white"/>
<path d="M94.7194 22H95.3523V23.7828H95.4028C95.4877 23.5965 95.6279 23.4409 95.8044 23.3372C95.9809 23.2335 96.1851 23.1867 96.3892 23.2033C96.5458 23.1947 96.7023 23.2209 96.8477 23.2798C96.993 23.3388 97.1235 23.4291 97.2299 23.5442C97.3363 23.6594 97.416 23.7967 97.4633 23.9462C97.5106 24.0958 97.5242 24.2539 97.5033 24.4093V26.498H96.8643V24.5668C96.8643 24.0501 96.6236 23.7884 96.1725 23.7884C96.0627 23.7794 95.9524 23.7945 95.8491 23.8326C95.7458 23.8707 95.6521 23.9309 95.5745 24.009C95.4969 24.0872 95.4373 24.1813 95.3999 24.2849C95.3625 24.3884 95.3482 24.4989 95.3579 24.6086V26.498H94.7194L94.7194 22Z" fill="white"/>
<path d="M101.226 25.6243C101.139 25.92 100.951 26.1757 100.695 26.3468C100.439 26.5179 100.13 26.5934 99.8241 26.5602C99.611 26.5659 99.3992 26.525 99.2034 26.4406C99.0076 26.3562 98.8326 26.2301 98.6904 26.0713C98.5482 25.9124 98.4423 25.7245 98.38 25.5206C98.3177 25.3166 98.3006 25.1016 98.3297 24.8904C98.3013 24.6786 98.3188 24.4631 98.3809 24.2586C98.4431 24.054 98.5484 23.8652 98.6899 23.705C98.8313 23.5447 99.0055 23.4167 99.2007 23.3296C99.3959 23.2425 99.6076 23.1984 99.8213 23.2002C100.721 23.2002 101.265 23.8152 101.265 24.8311V25.0539H98.9801V25.0897C98.9701 25.2084 98.985 25.3279 99.0239 25.4405C99.0628 25.5531 99.1248 25.6564 99.2059 25.7436C99.287 25.8309 99.3855 25.9002 99.495 25.9472C99.6044 25.9942 99.7225 26.0178 99.8417 26.0165C99.9944 26.0348 100.149 26.0073 100.286 25.9375C100.423 25.8676 100.536 25.7586 100.611 25.6243L101.226 25.6243ZM98.9801 24.5817H100.614C100.622 24.4731 100.607 24.3641 100.571 24.2615C100.534 24.159 100.477 24.0653 100.402 23.9863C100.327 23.9074 100.236 23.845 100.135 23.8032C100.035 23.7615 99.9266 23.7411 99.8178 23.7436C99.7074 23.7423 99.5978 23.763 99.4955 23.8046C99.3932 23.8462 99.3003 23.9079 99.2222 23.986C99.1442 24.0641 99.0825 24.1571 99.0409 24.2594C98.9993 24.3617 98.9787 24.4713 98.9801 24.5817H98.9801Z" fill="white"/>
</g>
<defs>
<filter id="filter0_d_89_443" x="0.5" y="0.875" width="137" height="69" filterUnits="userSpaceOnUse" color-interpolation-filters="sRGB">
<feFlood flood-opacity="0" result="BackgroundImageFix"/>
<feColorMatrix in="SourceAlpha" type="matrix" values="0 0 0 0 0 0 0 0 0 0 0 0 0 0 0 0 0 0 127 0" result="hardAlpha"/>
<feOffset dy="4.375"/>
<feGaussianBlur stdDeviation="8.75"/>
<feColorMatrix type="matrix" values="0 0 0 0 0.0745098 0 0 0 0 0.305882 0 0 0 0 0.290196 0 0 0 0.18 0"/>
<feBlend mode="normal" in2="BackgroundImageFix" result="effect1_dropShadow_89_443"/>
<feBlend mode="normal" in="SourceGraphic" in2="effect1_dropShadow_89_443" result="shape"/>
</filter>
</defs>
</svg>
