<svg width="68" height="23" viewBox="0 0 68 23" fill="none" xmlns="http://www.w3.org/2000/svg">
<path fill-rule="evenodd" clip-rule="evenodd" d="M8.9014 8.79622V11.1323L14.4847 11.1299C14.3134 12.4183 13.8789 13.3616 13.2186 14.0219C12.4043 14.8362 11.1333 15.7324 8.9014 15.7324C5.46059 15.7324 2.76951 12.9594 2.76951 9.51865C2.76951 6.07783 5.46059 3.30483 8.9014 3.30483C10.7584 3.30483 12.1139 4.0347 13.1143 4.9731L14.7627 3.32469C13.3675 1.99156 11.5106 0.96875 8.90388 0.96875C4.19201 0.96875 0.229858 4.80677 0.229858 9.51865C0.229858 14.2306 4.19201 18.0686 8.90388 18.0686C11.4461 18.0686 13.3651 17.2344 14.867 15.6704C16.4111 14.1263 16.8903 11.959 16.8903 10.2063C16.8903 9.68498 16.8506 9.20336 16.7736 8.79622H8.9014ZM55.9978 17.7332V1.59668H53.6394V17.7332H55.9978ZM23.3524 18.0711C26.396 18.0711 28.8761 15.735 28.8761 12.5647C28.8761 9.37221 26.396 7.05847 23.3524 7.05847C20.3088 7.05847 17.8287 9.37221 17.8287 12.5647C17.8287 15.735 20.3088 18.0711 23.3524 18.0711ZM23.3524 9.22822C25.0207 9.22822 26.4581 10.5837 26.4581 12.5647C26.4581 14.5234 25.0207 15.9014 23.3524 15.9014C21.6841 15.9014 20.2467 14.5259 20.2467 12.5647C20.2467 10.5837 21.6841 9.22822 23.3524 9.22822ZM35.2687 18.0711C38.3123 18.0711 40.7923 15.735 40.7923 12.5647C40.7923 9.37221 38.3123 7.05847 35.2687 7.05847C32.2251 7.05847 29.745 9.37469 29.745 12.5647C29.745 15.735 32.2251 18.0711 35.2687 18.0711ZM35.2687 9.22822C36.9369 9.22822 38.3743 10.5837 38.3743 12.5647C38.3743 14.5234 36.9369 15.9014 35.2687 15.9014C33.6004 15.9014 32.163 14.5259 32.163 12.5647C32.163 10.5837 33.6004 9.22822 35.2687 9.22822ZM52.2119 7.39362V17.2766C52.2119 21.3431 49.8138 23.0039 46.9787 23.0039C44.31 23.0039 42.7037 21.219 42.098 19.7591L44.2032 18.8829C44.5781 19.7791 45.4966 20.8367 46.9762 20.8367C48.791 20.8367 49.9155 19.7169 49.9155 17.6094V16.8174H49.8311C49.2899 17.4852 48.2473 18.0686 46.9315 18.0686C44.1784 18.0686 41.6561 15.6705 41.6561 12.5847C41.6561 9.47647 44.1784 7.05847 46.9315 7.05847C48.2448 7.05847 49.2875 7.64187 49.8311 8.28981H49.9155V7.39362H52.2119ZM50.0868 12.5847C50.0868 10.6458 48.7934 9.22822 47.1475 9.22822C45.4792 9.22822 44.0816 10.6458 44.0816 12.5847C44.0816 14.5036 45.4792 15.9014 47.1475 15.9014C48.7934 15.9014 50.0868 14.5036 50.0868 12.5847ZM65.1882 14.3771L67.065 15.6284C66.4592 16.5246 64.9995 18.0688 62.4772 18.0688C59.3492 18.0688 57.0131 15.6508 57.0131 12.5625C57.0131 9.28796 59.3691 7.05615 62.2066 7.05615C65.064 7.05615 66.4617 9.33017 66.9185 10.559L67.1692 11.1847L59.8085 14.2331C60.372 15.3379 61.2484 15.9015 62.4772 15.9015C63.7086 15.9015 64.5626 15.2957 65.1882 14.3771ZM59.4113 12.3961L64.3317 10.353C64.0611 9.66531 63.2468 9.18618 62.2885 9.18618C61.0597 9.18618 59.3492 10.271 59.4113 12.3961Z" fill="#2D2D2D"/>
</svg>
